<?xml version="1.0" encoding="UTF-8"?>
<svg id="LONG_DARK_COLOR" data-name="LONG DARK COLOR" xmlns="http://www.w3.org/2000/svg" viewBox="0 0 400 100">
  <defs>
    <style>
      .cls-1 {
        fill: #27251f;
      }

      .cls-1, .cls-2 {
        stroke-width: 0px;
      }

      .cls-2 {
        fill: #f99e23;
      }
    </style>
  </defs>
  <path class="cls-2" d="M84.63,9.88v80.25H4.38V9.88h80.25M88.62,5.88H.38v88.24h88.24V5.88h0Z"/>
  <polygon class="cls-1" points="73.93 43.21 73.93 41.98 40.59 41.98 40.59 46.09 25.78 46.09 25.78 31.28 40.59 31.28 40.59 36.63 51.29 36.63 51.29 31.28 51.29 20.58 40.59 20.58 25.78 20.58 15.08 20.58 15.08 31.28 15.08 46.09 15.08 46.09 15.08 56.79 15.08 56.79 25.78 56.79 48.41 56.79 48.41 52.68 63.24 52.68 63.24 68.72 48.41 68.72 48.41 63.38 37.71 63.38 37.71 68.72 37.71 79.42 37.71 79.43 48.41 79.43 48.41 79.42 63.24 79.42 63.24 79.43 73.94 79.43 73.94 43.21 73.93 43.21"/>
  <g>
    <path class="cls-1" d="M127.79,35.79v-5.33c-1-.17-1.97-.26-2.92-.26-2.69,0-4.56.78-5.62,2.34-1.06,1.56-1.59,4.03-1.59,7.4s.55,5.88,1.66,7.5,3.04,2.44,5.81,2.44,5.61-.39,8.51-1.17l.97,6.23c-3.03.87-6.28,1.3-9.74,1.3-9.61,0-14.42-5.41-14.42-16.24,0-5.59,1.09-9.67,3.28-12.24,2.19-2.58,5.83-3.86,10.94-3.86,3.29,0,6.45.41,9.48,1.23v10.65h-6.36Z"/>
    <path class="cls-1" d="M145.13,27.97c2.21-2.62,5.61-3.93,10.2-3.93s7.99,1.31,10.2,3.93c2.21,2.62,3.31,6.66,3.31,12.11s-1.1,9.51-3.31,12.18-5.61,3.99-10.2,3.99-7.99-1.33-10.2-3.99-3.31-6.72-3.31-12.18,1.1-9.49,3.31-12.11ZM150.36,32.61c-.89,1.52-1.33,4.01-1.33,7.47s.45,5.97,1.36,7.53c.91,1.56,2.55,2.34,4.94,2.34s4.03-.78,4.94-2.34c.91-1.56,1.36-4.07,1.36-7.53s-.44-5.95-1.33-7.47c-.89-1.52-2.54-2.27-4.97-2.27s-4.08.76-4.97,2.27Z"/>
    <path class="cls-1" d="M184.55,56.12c-6.93,0-10.39-3.29-10.39-9.87,0-3.51,1.11-5.96,3.34-7.37,2.23-1.41,5.31-2.11,9.25-2.11,1.86,0,3.98.11,6.36.32,0-2.6-.37-4.37-1.1-5.33-.74-.95-2.01-1.43-3.83-1.43s-3.94.22-6.36.65c-2.43.43-4.29.87-5.58,1.3l-1.23-6.17c4.55-1.38,8.98-2.08,13.31-2.08s7.33.95,8.99,2.86c1.67,1.91,2.5,5.13,2.5,9.68v13.18l.71,5.71-6.69.65-.65-2.99c-3.64,1.99-6.52,2.99-8.64,2.99ZM185.59,49.82c1.21,0,2.55-.28,4.03-.84,1.47-.56,2.64-1.19,3.51-1.88v-4.55c-2.6-.22-4.72-.32-6.36-.32-3.59,0-5.39,1.34-5.39,4.03,0,2.38,1.41,3.57,4.22,3.57Z"/>
    <path class="cls-1" d="M208.26,55.4v-5.97h9.68v-31.3l-8.38.06-.06-5.91,15.13-.06v37.21h9.16v5.97h-25.52Z"/>
    <path class="cls-1" d="M240.6,53.97l1.43-5.91c4.11,1.3,7.38,1.95,9.81,1.95s4.07-.24,4.94-.71c.87-.43,1.3-1.21,1.3-2.34s-.39-1.93-1.17-2.4c-.78-.48-2.25-.97-4.42-1.49-4.29-1.04-7.27-2.2-8.96-3.47-1.69-1.28-2.53-3.37-2.53-6.27,0-6.19,3.98-9.29,11.95-9.29,3.42,0,7.38.56,11.88,1.69l-1.23,6.17c-4.29-1.21-7.6-1.82-9.94-1.82s-3.91.21-4.71.62c-.8.41-1.2,1.12-1.2,2.11s.4,1.72,1.2,2.18c.8.45,2.87,1.14,6.2,2.05,3.33.91,5.78,1.96,7.34,3.15,1.56,1.19,2.34,3.21,2.34,6.07,0,6.54-4.03,9.81-12.08,9.81-3.77,0-7.82-.69-12.14-2.08Z"/>
    <path class="cls-1" d="M279.3,32.67v22.73h-6.69V12.09h6.69v14.29c3.51-1.56,6.26-2.34,8.25-2.34,3.72,0,6.35,1.08,7.89,3.25,1.54,2.17,2.31,5.33,2.31,9.48v18.64h-6.69v-18.77c0-1.82-.36-3.32-1.07-4.51-.71-1.19-1.66-1.79-2.82-1.79-2.12,0-4.74.78-7.86,2.34Z"/>
    <path class="cls-1" d="M307.49,27.97c2.21-2.62,5.61-3.93,10.2-3.93s7.99,1.31,10.2,3.93c2.21,2.62,3.31,6.66,3.31,12.11s-1.1,9.51-3.31,12.18-5.61,3.99-10.2,3.99-7.99-1.33-10.2-3.99-3.31-6.72-3.31-12.18,1.1-9.49,3.31-12.11ZM312.71,32.61c-.89,1.52-1.33,4.01-1.33,7.47s.45,5.97,1.36,7.53c.91,1.56,2.55,2.34,4.94,2.34s4.03-.78,4.94-2.34c.91-1.56,1.36-4.07,1.36-7.53s-.44-5.95-1.33-7.47c-.89-1.52-2.54-2.27-4.97-2.27s-4.08.76-4.97,2.27Z"/>
    <path class="cls-1" d="M337.62,67.87V30.14l-.39-5.58,6.49-.45.39,2.86c2.9-1.95,5.48-2.92,7.73-2.92,4.37,0,7.59,1.29,9.64,3.86,2.06,2.58,3.09,6.59,3.09,12.05s-1.26,9.51-3.77,12.18c-2.51,2.66-6.08,3.99-10.72,3.99-1.56,0-3.49-.45-5.78-1.36v13.12h-6.69ZM351.58,30.27c-1.99,0-4.42.95-7.27,2.86v15.46c2.08.91,3.96,1.36,5.65,1.36,4.94,0,7.4-3.29,7.4-9.87s-1.93-9.85-5.78-9.81Z"/>
  </g>
  <g>
    <path class="cls-1" d="M115.27,86.36v-20.87h3.23v11.96l2.07-.22c1.17-1.51,2.2-3.14,3.08-4.9l.44-.88h3.52c-1.32,2.78-2.78,5.11-4.39,6.97,1.34,1.9,2.69,4.15,4.05,6.75l.63,1.19h-3.67c-1.03-2.22-2.2-4.34-3.52-6.37l-2.2.22v6.15h-3.23Z"/>
    <path class="cls-1" d="M131.47,73.1c1.07-1.27,2.71-1.9,4.93-1.9s3.86.63,4.93,1.9c1.07,1.27,1.6,3.22,1.6,5.85s-.53,4.6-1.6,5.89c-1.07,1.29-2.71,1.93-4.93,1.93s-3.86-.64-4.93-1.93c-1.07-1.29-1.6-3.25-1.6-5.89s.53-4.59,1.6-5.85ZM133.99,75.34c-.43.73-.64,1.94-.64,3.61s.22,2.89.66,3.64,1.23,1.13,2.39,1.13,1.95-.38,2.39-1.13.66-1.97.66-3.64-.21-2.88-.64-3.61c-.43-.73-1.23-1.1-2.4-1.1s-1.97.37-2.4,1.1Z"/>
    <path class="cls-1" d="M149.14,71.45l.06.91c1.69-.77,3.02-1.16,3.99-1.16,1.69,0,2.95.5,3.75,1.49.81.99,1.21,2.55,1.21,4.66v9.01h-3.23v-8.91c0-1-.18-1.79-.53-2.35-.36-.56-.91-.85-1.66-.85s-1.91.37-3.48,1.1v11.02h-3.23v-14.91h3.14Z"/>
    <path class="cls-1" d="M163.17,73.16c1.13-1.31,2.7-1.96,4.71-1.96s3.56.59,4.66,1.77c1.1,1.18,1.67,2.91,1.71,5.19l-.13,2.32h-9.17c.19,2.26,1.32,3.39,3.39,3.39,1.44,0,2.97-.26,4.58-.79l.66,2.73c-.67.23-1.54.43-2.61.61-1.07.18-1.95.27-2.64.27-4.58,0-6.87-2.59-6.87-7.78,0-2.53.56-4.45,1.69-5.76ZM168,74.12c-.98,0-1.72.29-2.21.86-.49.58-.77,1.53-.83,2.87h5.81c0-2.49-.92-3.73-2.76-3.73Z"/>
    <path class="cls-1" d="M178.04,86.36v-20.87h3.23v11.96l2.07-.22c1.17-1.51,2.2-3.14,3.08-4.9l.44-.88h3.52c-1.32,2.78-2.78,5.11-4.39,6.97,1.34,1.9,2.69,4.15,4.05,6.75l.63,1.19h-3.67c-1.03-2.22-2.2-4.34-3.52-6.37l-2.2.22v6.15h-3.23Z"/>
    <path class="cls-1" d="M193.17,74.34v-2.89h2.54v-3.58l3.23-.31v3.89h5.87v2.89h-5.87v6.28c0,1.15.12,1.96.35,2.43.23.47.7.71,1.41.71,1.23,0,2.68-.2,4.33-.6l.53,2.79c-1.82.48-3.44.72-4.86.72-2.01,0-3.34-.45-4-1.35-.66-.9-.99-2.47-.99-4.71v-6.28h-2.54Z"/>
    <path class="cls-1" d="M209.93,73.1c1.07-1.27,2.71-1.9,4.93-1.9s3.86.63,4.93,1.9c1.07,1.27,1.6,3.22,1.6,5.85s-.53,4.6-1.6,5.89-2.71,1.93-4.93,1.93-3.86-.64-4.93-1.93-1.6-3.25-1.6-5.89.53-4.59,1.6-5.85ZM212.46,75.34c-.43.73-.64,1.94-.64,3.61s.22,2.89.66,3.64c.44.75,1.23,1.13,2.38,1.13s1.95-.38,2.39-1.13c.44-.75.66-1.97.66-3.64s-.21-2.88-.64-3.61c-.43-.73-1.23-1.1-2.4-1.1s-1.97.37-2.4,1.1Z"/>
    <path class="cls-1" d="M224.62,86.36v-2.89h3.05v-9.13h-3.05v-2.89h6.28l.06,1.51c1.59-.9,3.41-1.46,5.46-1.69h.85v3.14h-.85c-2.3.21-4.12.69-5.46,1.44v7.69h4.68v2.82h-11.02Z"/>
  </g>
</svg>