<svg width="196" height="64" viewBox="0 0 196 64" fill="none" xmlns="http://www.w3.org/2000/svg">
<g clip-path="url(#clip0_45_413)">
<path d="M167.753 40.8484V12.4162L167.46 8.20765L172.36 7.8651L172.654 10.0183C174.843 8.55021 176.787 7.81616 178.486 7.81616C181.785 7.81616 184.203 8.79489 185.738 10.7524C187.307 12.6772 188.091 15.695 188.091 19.8057C188.091 23.9163 187.143 26.9831 185.248 29.0058C183.354 30.9959 180.658 31.9909 177.163 31.9909C175.986 31.9909 174.533 31.6483 172.801 30.9632V40.8484H167.753ZM178.29 12.5141C176.787 12.5141 174.957 13.2318 172.801 14.6673V26.3142C174.369 26.9994 175.79 27.3419 177.065 27.3419C180.789 27.3419 182.652 24.8625 182.652 19.9035C182.652 14.9446 181.198 12.4814 178.29 12.5141Z" fill="#FF9E1B"/>
<path d="M146.136 10.7361C147.738 8.78945 150.204 7.81616 153.533 7.81616C156.863 7.81616 159.329 8.78945 160.931 10.7361C162.532 12.6507 163.333 15.6184 163.333 19.6393C163.333 23.6601 162.532 26.6597 160.931 28.6383C159.329 30.5848 156.863 31.5581 153.533 31.5581C150.204 31.5581 147.738 30.5848 146.136 28.6383C144.534 26.6597 143.733 23.6601 143.733 19.6393C143.733 15.6184 144.534 12.6507 146.136 10.7361ZM149.906 14.1346C149.277 15.2515 148.963 17.0864 148.963 19.6393C148.963 22.1922 149.294 24.0431 149.953 25.1919C150.612 26.3407 151.806 26.9151 153.533 26.9151C155.261 26.9151 156.455 26.3407 157.114 25.1919C157.773 24.0431 158.104 22.1922 158.104 19.6393C158.104 17.0864 157.773 15.2515 157.114 14.1346C156.486 13.0177 155.292 12.4593 153.533 12.4593C151.775 12.4593 150.565 13.0177 149.906 14.1346Z" fill="#FF9E1B"/>
<path d="M124.949 14.7665V31.5581H120.007V-0.441895H124.949V10.1128C127.54 8.96139 129.572 8.38568 131.042 8.38568C133.793 8.38568 135.728 9.18529 136.848 10.7845C137.999 12.3836 138.575 14.7185 138.575 17.789V31.5581H133.633V17.693C133.633 16.3497 133.361 15.2463 132.818 14.3827C132.306 13.4871 131.618 13.0394 130.755 13.0394C129.187 13.0394 127.252 13.6151 124.949 14.7665Z" fill="#FF9E1B"/>
<path d="M96.2806 30.017L97.3759 25.6347C100.529 26.5978 103.034 27.0793 104.893 27.0793C106.752 27.0793 108.013 26.9028 108.677 26.5496C109.34 26.2286 109.672 25.6507 109.672 24.8159C109.672 23.9812 109.373 23.3873 108.775 23.0341C108.179 22.681 107.05 22.3117 105.39 21.9264C102.105 21.1559 99.8151 20.3051 98.5209 19.374C97.2265 18.4109 96.5793 16.8538 96.5793 14.7028C96.5793 10.1117 99.6326 7.81616 105.74 7.81616C108.361 7.81616 111.398 8.23353 114.849 9.06827L113.903 13.6432C110.618 12.7443 108.079 12.2948 106.287 12.2948C104.494 12.2948 103.284 12.4554 102.653 12.7765C102.055 13.0653 101.757 13.579 101.757 14.3175C101.757 15.0559 102.055 15.6017 102.653 15.9548C103.284 16.2759 104.876 16.7736 107.432 17.4478C109.987 18.122 111.862 18.9085 113.057 19.8075C114.252 20.6744 114.849 22.1673 114.849 24.2862C114.849 29.1341 111.762 31.5581 105.59 31.5581C102.703 31.5581 99.5995 31.0444 96.2806 30.017Z" fill="#FF9E1B"/>
<path d="M72.5543 31.5581V27.1311H79.5942V3.93706L73.4992 3.98518L73.4519 -0.393774L84.4608 -0.441895V27.1311H91.1227V31.5581H72.5543Z" fill="#FF9E1B"/>
<path d="M56.2929 26.8962C57.1941 26.8962 58.1918 26.6879 59.286 26.2714C60.3803 25.8549 61.2493 25.3903 61.8929 24.8776V21.5134C59.9619 21.3532 58.3848 21.2731 57.1619 21.2731C54.4906 21.2731 53.155 22.2664 53.155 24.2528C53.155 26.0151 54.2009 26.8962 56.2929 26.8962ZM55.5205 31.5581C50.3711 31.5581 47.7964 29.123 47.7964 24.2528C47.7964 21.6576 48.6171 19.8473 50.2585 18.822C51.932 17.7647 54.2332 17.236 57.1619 17.236C58.5458 17.236 60.1228 17.3161 61.8929 17.4763C61.8929 15.5539 61.6193 14.2402 61.0723 13.5354C60.5251 12.8305 59.5757 12.4781 58.224 12.4781C56.8722 12.4781 55.2952 12.6382 53.4929 12.9587C51.6906 13.279 50.3067 13.5995 49.3413 13.9198L48.424 9.35405C51.8033 8.3288 55.1021 7.81616 58.3205 7.81616C61.5389 7.81616 63.7596 8.52105 64.9826 9.93078C66.2378 11.3406 66.8654 13.7276 66.8654 17.0918V26.8481L67.3964 31.0774L62.4239 31.5581L61.9412 29.3472C59.2377 30.8211 57.0975 31.5581 55.5205 31.5581Z" fill="#FF9E1B"/>
<path d="M26.473 10.7361C28.0749 8.78945 30.5406 7.81616 33.8701 7.81616C37.1996 7.81616 39.6653 8.78945 41.2672 10.7361C42.8691 12.6507 43.6701 15.6184 43.6701 19.6393C43.6701 23.6601 42.8691 26.6597 41.2672 28.6383C39.6653 30.5848 37.1996 31.5581 33.8701 31.5581C30.5406 31.5581 28.0749 30.5848 26.473 28.6383C24.871 26.6597 24.0701 23.6601 24.0701 19.6393C24.0701 15.6184 24.871 12.6507 26.473 10.7361ZM30.2422 14.1346C29.614 15.2515 29.2999 17.0864 29.2999 19.6393C29.2999 22.1922 29.6297 24.0431 30.2893 25.1919C30.949 26.3407 32.1426 26.9151 33.8701 26.9151C35.5977 26.9151 36.7913 26.3407 37.4508 25.1919C38.1105 24.0431 38.4403 22.1922 38.4403 19.6393C38.4403 17.0864 38.1105 15.2515 37.4508 14.1346C36.8226 13.0177 35.629 12.4593 33.8701 12.4593C32.1111 12.4593 30.9018 13.0177 30.2422 14.1346Z" fill="#FF9E1B"/>
<path d="M13.6711 16.5406V12.6313C12.9057 12.5042 12.157 12.4406 11.425 12.4406C9.36176 12.4406 7.91422 13.0127 7.08231 14.1569C6.28366 15.3011 5.88434 17.1127 5.88434 19.5918C5.88434 22.0709 6.30029 23.9143 7.13222 25.122C7.99741 26.2981 9.49488 26.886 11.6246 26.886C13.7543 26.886 15.934 26.6 18.1635 26.0279L18.9122 30.6047C16.5829 31.2403 14.0871 31.5581 11.425 31.5581C4.03747 31.5581 0.34375 27.5852 0.34375 19.6394C0.34375 15.5395 1.17567 12.5519 2.83951 10.6766C4.53663 8.76966 7.34852 7.81616 11.2752 7.81616C13.8042 7.81616 16.2335 8.1181 18.5629 8.72198V16.5406H13.6711Z" fill="#FF9E1B"/>
<path d="M92.3187 63.7094V49.7603H92.8997V51.9761H92.9723C93.2991 51.2496 93.8347 50.6685 94.5792 50.2325C95.3297 49.7966 96.1861 49.5786 97.1484 49.5786C97.2211 49.5786 97.2695 49.5786 97.2937 49.5786C97.3179 49.5786 97.3664 49.5786 97.439 49.5786V50.1599C97.3664 50.1599 97.3179 50.1599 97.2937 50.1599C97.2695 50.1599 97.2211 50.1599 97.1484 50.1599C96.3253 50.1599 95.593 50.3385 94.9514 50.6956C94.3159 51.0529 93.8136 51.5463 93.4444 52.1759C93.0813 52.8057 92.8997 53.5261 92.8997 54.3374V63.7094H92.3187Z" fill="#FF9E1B"/>
<path d="M82.4525 64.0002C81.357 64.0002 80.3735 63.6853 79.5019 63.0557C78.6304 62.4199 77.9404 61.5573 77.432 60.4674C76.9296 59.3716 76.6785 58.1396 76.6785 56.7713C76.6785 55.397 76.9296 54.165 77.432 53.0751C77.9404 51.9854 78.6304 51.1257 79.5019 50.496C80.3735 49.8603 81.357 49.5425 82.4525 49.5425C83.5479 49.5425 84.5285 49.8603 85.394 50.496C86.2654 51.1318 86.9555 51.9944 87.4638 53.0842C87.9722 54.174 88.2264 55.403 88.2264 56.7713C88.2264 58.1396 87.9722 59.3716 87.4638 60.4674C86.9614 61.5573 86.2746 62.4199 85.403 63.0557C84.5315 63.6853 83.5479 64.0002 82.4525 64.0002ZM82.4525 63.4189C83.439 63.4189 84.3227 63.1283 85.1034 62.5471C85.8902 61.9659 86.5105 61.1728 86.9645 60.1678C87.4184 59.1628 87.6454 58.0306 87.6454 56.7713C87.6454 55.512 87.4154 54.3829 86.9555 53.3839C86.5015 52.3789 85.8842 51.5858 85.1034 51.0045C84.3227 50.4173 83.439 50.1236 82.4525 50.1236C81.4719 50.1236 80.5883 50.4173 79.8016 51.0045C79.0208 51.5858 78.4004 52.3789 77.9404 53.3839C77.4865 54.3829 77.2595 55.512 77.2595 56.7713C77.2595 58.0306 77.4865 59.1628 77.9404 60.1678C78.3943 61.1728 79.0117 61.9659 79.7924 62.5471C80.5793 63.1283 81.466 63.4189 82.4525 63.4189Z" fill="#FF9E1B"/>
<path d="M73.1334 49.7603V50.3415H67.6135V49.7603H73.1334ZM69.6471 46.4183H70.2282V60.767C70.2282 61.3119 70.3492 61.7811 70.5913 62.1746C70.8335 62.5622 71.1542 62.8618 71.5537 63.0737C71.9531 63.2796 72.3828 63.3825 72.8428 63.3825C73.0183 63.3825 73.1788 63.3674 73.3239 63.337C73.4753 63.3068 73.6297 63.2614 73.787 63.2009L73.9686 63.7458C73.787 63.8124 73.6085 63.8638 73.4329 63.9001C73.2574 63.9425 73.0607 63.9637 72.8428 63.9637C72.2739 63.9637 71.7443 63.8336 71.2541 63.5732C70.7699 63.3128 70.3795 62.9435 70.0829 62.4653C69.7924 61.987 69.6471 61.4208 69.6471 60.767V46.4183Z" fill="#FF9E1B"/>
<path d="M56.7534 58.0788V57.0253H56.9712L64.3794 49.7601H65.2146L58.8596 56.0082L58.787 56.0809L56.7534 58.0788ZM56.3176 63.7093V45.1105H56.8986V63.7093H56.3176ZM64.6699 63.7093L58.5691 56.0082L59.0048 55.645L65.4325 63.7093H64.6699Z" fill="#FF9E1B"/>
<path d="M46.7918 64.0002C45.5753 64.0002 44.5101 63.6823 43.5961 63.0466C42.6883 62.4109 41.9832 61.5481 41.4808 60.4584C40.9785 59.3686 40.7273 58.1396 40.7273 56.7713C40.7273 55.403 40.9785 54.174 41.4808 53.0842C41.9893 51.9944 42.6792 51.1318 43.5508 50.496C44.4223 49.8603 45.4058 49.5425 46.5013 49.5425C47.3123 49.5425 48.0628 49.715 48.7528 50.0601C49.4488 50.4052 50.054 50.8835 50.5685 51.495C51.0829 52.1064 51.4824 52.8118 51.7669 53.611C52.0574 54.4041 52.2027 55.2516 52.2027 56.1537V56.735H41.0179V56.1537H51.6216C51.6216 55.0337 51.3916 54.0196 50.9317 53.1115C50.4717 52.1973 49.8543 51.4707 49.0796 50.932C48.3049 50.3931 47.4454 50.1236 46.5013 50.1236C45.5451 50.1236 44.6796 50.4082 43.9048 50.9774C43.1301 51.5465 42.5097 52.3213 42.0437 53.3022C41.5777 54.2829 41.3326 55.3909 41.3084 56.626V56.6987C41.3084 57.9155 41.5201 59.0356 41.9439 60.0588C42.3736 61.076 42.997 61.8903 43.8141 62.5017C44.6311 63.1132 45.6237 63.4189 46.7918 63.4189C47.6512 63.4189 48.3715 63.2676 48.9525 62.9649C49.5396 62.6621 50.0086 62.314 50.3596 61.9205C50.7168 61.5269 50.98 61.1909 51.1495 60.9124L51.6216 61.2394C51.4158 61.5905 51.1071 61.981 50.6956 62.4109C50.284 62.8407 49.7575 63.213 49.1159 63.5279C48.4744 63.8427 47.6997 64.0002 46.7918 64.0002Z" fill="#FF9E1B"/>
<path d="M27.6134 54.3374V63.7094H27.0325V49.7603H27.6134V51.9761H27.6861C28.0129 51.2496 28.5486 50.6685 29.293 50.2325C30.0435 49.7966 30.9 49.5786 31.8623 49.5786C32.7943 49.5786 33.6174 49.7815 34.3317 50.1872C35.0458 50.5927 35.6057 51.1528 36.0112 51.8672C36.4166 52.5816 36.6194 53.405 36.6194 54.3374V63.7094H36.0384V54.3374C36.0384 53.1023 35.651 52.0973 34.8763 51.3223C34.1017 50.5473 33.097 50.1599 31.8623 50.1599C31.0392 50.1599 30.3068 50.3385 29.6653 50.6956C29.0298 51.0529 28.5274 51.5463 28.1582 52.1759C27.7951 52.8057 27.6134 53.5261 27.6134 54.3374Z" fill="#FF9E1B"/>
<path d="M17.1662 64.0002C16.0708 64.0002 15.0873 63.6853 14.2157 63.0557C13.3442 62.4199 12.6542 61.5573 12.1459 60.4674C11.6435 59.3716 11.3923 58.1396 11.3923 56.7713C11.3923 55.397 11.6435 54.165 12.1459 53.0751C12.6542 51.9854 13.3442 51.1257 14.2157 50.496C15.0873 49.8603 16.0708 49.5425 17.1662 49.5425C18.2617 49.5425 19.2422 49.8603 20.1077 50.496C20.9793 51.1318 21.6692 51.9944 22.1777 53.0842C22.686 54.174 22.9402 55.403 22.9402 56.7713C22.9402 58.1396 22.686 59.3716 22.1777 60.4674C21.6753 61.5573 20.9883 62.4199 20.1168 63.0557C19.2452 63.6853 18.2617 64.0002 17.1662 64.0002ZM17.1662 63.4189C18.1528 63.4189 19.0364 63.1283 19.8172 62.5471C20.604 61.9659 21.2244 61.1728 21.6783 60.1678C22.1323 59.1628 22.3592 58.0306 22.3592 56.7713C22.3592 55.512 22.1292 54.3829 21.6692 53.3839C21.2153 52.3789 20.5979 51.5858 19.8172 51.0045C19.0364 50.4173 18.1528 50.1236 17.1662 50.1236C16.1858 50.1236 15.3021 50.4173 14.5153 51.0045C13.7345 51.5858 13.1142 52.3789 12.6542 53.3839C12.2003 54.3829 11.9733 55.512 11.9733 56.7713C11.9733 58.0306 12.2003 59.1628 12.6542 60.1678C13.1082 61.1728 13.7255 61.9659 14.5063 62.5471C15.2931 63.1283 16.1797 63.4189 17.1662 63.4189Z" fill="#FF9E1B"/>
<path d="M0.779521 58.0788V57.0253H0.997406L8.40551 49.7601H9.24073L2.88574 56.0082L2.81312 56.0809L0.779521 58.0788ZM0.34375 63.7093V45.1105H0.924778V63.7093H0.34375ZM8.69602 63.7093L2.59524 56.0082L3.03101 55.645L9.45862 63.7093H8.69602Z" fill="#FF9E1B"/>
</g>
<defs>
<clipPath id="clip0_45_413">
<rect width="196" height="64" fill="white"/>
</clipPath>
</defs>
</svg>
