<svg width="138" height="64" viewBox="0 0 138 64" fill="none" xmlns="http://www.w3.org/2000/svg">
<g clip-path="url(#clip0_45_55)">
<path d="M40.3949 19.4141H52.6848V19.081C52.5419 17.7487 51.9227 16.6543 50.7794 15.7026C49.6362 14.7509 48.3024 14.2751 46.8257 14.2751C43.2054 14.3227 41.0618 16.0357 40.3949 19.4141ZM57.8295 23.4112C57.2579 23.887 56.591 24.1249 55.8764 24.1249H40.3473C40.7283 25.9807 41.5858 27.4082 42.9196 28.455C44.2534 29.5019 45.7777 30.0253 47.4926 30.0253C48.7787 30.0253 49.7791 29.9301 50.4936 29.6922C51.2081 29.4543 51.7798 29.2164 52.2085 28.9309C52.6372 28.6454 52.923 28.5026 53.0659 28.4074C53.6376 28.1219 54.1615 27.9792 54.6855 27.9792C55.3524 27.9792 55.9241 28.2171 56.4004 28.6929C56.8768 29.1688 57.1149 29.6922 57.1149 30.3108C57.1149 31.1673 56.6862 31.9286 55.7812 32.5948C54.9237 33.3086 53.7328 33.9271 52.2561 34.403C50.7794 34.9264 49.3027 35.1643 47.7784 35.1643C45.1584 35.1643 42.8719 34.5933 40.9189 33.5465C38.9658 32.452 37.4415 30.9294 36.3935 29.026C35.3455 27.1227 34.7739 24.9338 34.7739 22.5071C34.7739 19.7948 35.3455 17.4632 36.4888 15.4171C37.632 13.371 39.1087 11.8483 40.9665 10.7539C42.8243 9.65948 44.7774 9.13606 46.8733 9.13606C48.9693 9.13606 50.8747 9.70706 52.7325 10.8015C54.5903 11.9435 56.0193 13.4186 57.1149 15.3695C58.2106 17.3204 58.7346 19.319 58.7346 21.5554C58.6869 22.3643 58.4011 22.9353 57.8295 23.4112ZM69.4049 33.8796C68.8809 34.4506 68.1664 34.6885 67.3566 34.6885C66.5468 34.6885 65.9275 34.403 65.4035 33.8796C64.8795 33.3561 64.5937 32.6424 64.5937 31.8335V2.85502C64.5937 2.0461 64.8795 1.37993 65.4035 0.808922C65.9275 0.237918 66.642 0 67.4519 0C68.2617 0 68.8809 0.285502 69.4049 0.808922C69.9289 1.37993 70.2147 2.0461 70.2147 2.85502V31.881C70.2147 32.69 69.9289 33.3561 69.4049 33.8796ZM82.3141 33.8796C81.7901 34.4506 81.1232 34.6885 80.3134 34.6885C79.5036 34.6885 78.8367 34.403 78.3127 33.8796C77.7887 33.3561 77.5029 32.6424 77.5029 31.8335V12.4669C77.5029 11.658 77.7887 10.9918 78.3127 10.4208C78.8367 9.84981 79.5036 9.6119 80.3134 9.6119C81.1232 9.6119 81.7901 9.8974 82.3141 10.4208C82.8381 10.9442 83.1239 11.658 83.1239 12.4669V31.881C83.1239 32.69 82.8857 33.3561 82.3141 33.8796ZM107.704 18.0818C107.037 16.8922 106.227 15.9405 105.132 15.2743C104.036 14.6082 102.845 14.2751 101.559 14.2751C100.273 14.2751 99.0342 14.6082 97.9862 15.2743C96.8906 15.9405 96.0331 16.8446 95.4139 18.0818C94.747 19.2714 94.4612 20.6513 94.4612 22.174C94.4612 23.6967 94.7946 25.0766 95.4139 26.2662C96.0331 27.4558 96.9382 28.3599 97.9862 29.026C99.0342 29.6922 100.273 30.0253 101.559 30.0253C102.845 30.0253 104.084 29.6922 105.132 29.026C106.227 28.3599 107.085 27.4558 107.704 26.2662C108.323 25.0766 108.657 23.6967 108.657 22.174C108.657 20.6513 108.323 19.319 107.704 18.0818ZM112.61 28.9309C111.467 30.9294 109.943 32.452 107.99 33.5465C106.037 34.6409 103.893 35.1643 101.511 35.1643C99.1294 35.1643 96.9858 34.5933 95.0328 33.5465C93.0797 32.452 91.5554 30.9294 90.4121 28.9309C89.2689 26.9323 88.6973 24.6959 88.6973 22.174C88.6973 19.652 89.2689 17.4156 90.4121 15.4171C91.5554 13.4186 93.0797 11.8959 95.0328 10.7539C96.9858 9.65948 99.1294 9.08848 101.511 9.08848C103.893 9.08848 106.037 9.65948 107.99 10.7539C109.943 11.8483 111.515 13.4186 112.61 15.4171C113.754 17.4156 114.278 19.652 114.278 22.174C114.278 24.6959 113.754 26.9323 112.61 28.9309ZM118.184 29.4067C118.184 28.5978 118.612 27.884 119.422 27.3606C119.851 27.0751 120.327 26.9323 120.804 26.9323C121.47 26.9323 122.09 27.2178 122.661 27.8364C123.614 28.7881 124.567 29.5494 125.615 29.9777C126.615 30.4535 127.854 30.6915 129.283 30.6915C131.712 30.5963 132.951 29.6922 132.951 27.9316C132.951 27.0275 132.522 26.3613 131.712 25.8855C130.902 25.4097 129.569 24.9338 127.854 24.458C126.043 23.9346 124.567 23.4587 123.424 22.9353C122.28 22.4119 121.28 21.6506 120.47 20.6513C119.66 19.652 119.232 18.2721 119.232 16.5591C119.232 15.0364 119.66 13.7517 120.518 12.6572C121.375 11.5628 122.518 10.7063 123.9 10.0877C125.281 9.46915 126.758 9.18364 128.33 9.18364C129.902 9.18364 131.522 9.46915 133.141 10.0877C134.761 10.6587 135.999 11.5628 136.904 12.7048C137.333 13.1807 137.524 13.7517 137.524 14.3703C137.524 15.084 137.238 15.7026 136.619 16.1784C136.19 16.5115 135.666 16.7019 135.142 16.7019C134.427 16.7019 133.903 16.4639 133.475 16.0357C132.903 15.3695 132.188 14.7985 131.283 14.3703C130.378 13.9896 129.378 13.7517 128.235 13.7517C125.853 13.7517 124.662 14.6082 124.662 16.3212C124.662 16.9874 124.9 17.5584 125.329 17.9866C125.758 18.4149 126.329 18.748 126.996 18.9859C127.663 19.2238 128.616 19.5093 129.854 19.8424C131.522 20.3182 132.951 20.7941 134.094 21.3175C135.237 21.8409 136.19 22.6022 136.952 23.6015C137.714 24.6483 138.143 25.9807 138.143 27.6937C138.143 29.2164 137.667 30.5487 136.761 31.6907C135.856 32.8327 134.666 33.6892 133.236 34.3078C131.807 34.8788 130.331 35.2119 128.854 35.2119C126.806 35.2119 124.853 34.8788 123.09 34.1651C121.328 33.4989 119.851 32.3569 118.708 30.8342C118.327 30.4535 118.184 29.9777 118.184 29.4067ZM83.2668 2.95019C83.2668 4.56803 81.933 5.90037 80.3134 5.90037C78.6938 5.90037 77.36 4.56803 77.36 2.95019C77.36 1.33234 78.6938 0 80.3134 0C81.933 0 83.2668 1.33234 83.2668 2.95019ZM25.3897 34.7361C23.8177 34.7361 22.4839 33.4513 22.4839 31.8335V3.90186C22.4839 2.3316 23.7701 0.999256 25.3897 0.999256C27.0093 0.999256 28.2955 2.28401 28.2955 3.90186V31.8335C28.2478 33.4037 26.9617 34.7361 25.3897 34.7361ZM0 19.7472V31.8335C0 33.4037 1.28616 34.7361 2.90576 34.7361C4.52537 34.7361 5.81153 33.4513 5.81153 31.8335V23.316L19.1971 19.7472C19.6735 19.6045 20.0069 19.1762 20.0069 18.7004V15.0364C20.0069 14.3227 19.2924 13.7517 18.6255 13.9896L0.857439 18.748C0.333448 18.7955 0 19.2238 0 19.7472ZM2.90576 1.04684C1.28616 1.04684 0 2.3316 0 3.90186V14.8461C0 15.4647 0.476355 15.9405 1.09562 15.9405C1.19089 15.9405 1.28616 15.9405 1.38143 15.8929L4.95409 14.9413C5.43045 14.7985 5.76389 14.3703 5.76389 13.8944V3.90186C5.76389 2.3316 4.47774 1.04684 2.90576 1.04684ZM18.7684 51.2H21.9123C22.1029 51.2 22.2934 51.3903 22.2934 51.5807V51.771C22.2934 51.9613 22.1029 52.1517 21.9123 52.1517H18.7684C17.0059 52.1517 15.1957 52.913 15.1957 55.197C15.1957 57.481 17.0059 58.2424 18.7684 58.2424H21.9123C22.1029 58.2424 22.2934 58.4327 22.2934 58.6231V58.8134C22.2934 59.0037 22.1029 59.1941 21.9123 59.1941H18.7684C16.1961 59.1941 14.1954 57.719 14.1954 55.1494C14.1954 52.5799 16.1961 51.2 18.7684 51.2ZM19.4829 46.8223C18.1015 46.8223 16.7201 47.4409 15.6721 48.1546C15.4339 48.2974 15.1481 48.2974 15.0052 48.0595L14.9099 47.8691C14.767 47.6312 14.9575 47.3933 15.1957 47.2506C16.4819 46.4416 17.9109 45.8231 19.5782 45.8231C21.9123 45.8231 24.4846 47.1078 24.4846 51.2V58.9086C24.4846 59.0989 24.2941 59.2892 24.1036 59.2892H23.8177C23.6272 59.2892 23.4367 59.0989 23.4367 58.9086V51.2C23.389 47.4885 20.912 46.8223 19.4829 46.8223ZM6.09734 45.8231C8.95547 45.8231 12.147 47.9643 11.9565 52.8654C11.9089 53.1033 11.766 53.2461 11.5754 53.2461H2.47705C2.2865 53.2461 2.09596 53.0558 2.09596 52.8654V52.6751C2.09596 52.4848 2.2865 52.2944 2.47705 52.2944H10.9085C10.9085 48.916 8.66966 46.8699 6.09734 46.8699C3.95375 46.8699 1.09562 48.4877 1.09562 52.8178C1.09562 57.148 4.09665 58.7658 6.24025 58.7658C7.62168 58.7658 8.81256 58.29 10.1464 57.4335C10.4322 57.2431 10.6703 57.3383 10.8133 57.5286L10.9085 57.6714C11.0514 57.8617 11.0038 58.0996 10.6703 58.3375C9.28892 59.1941 7.95513 59.7651 6.24025 59.7651C3.28685 59.7651 0 57.7665 0 52.8178C0 47.8691 3.14394 45.8231 6.09734 45.8231ZM27.3428 49.1063C27.3428 47.0602 29.3911 45.8231 31.5347 45.8231C33.2496 45.8231 34.5834 46.4416 35.9648 47.2506C36.2982 47.4409 36.3459 47.6788 36.203 47.9167L36.1077 48.0595C35.9648 48.2498 35.7266 48.345 35.4408 48.1546C34.107 47.2981 32.9161 46.8223 31.5347 46.8223C30.1533 46.8223 28.3907 47.6788 28.3907 49.1063C28.3907 52.6275 36.6317 51.3428 36.6317 56.0535C36.6317 58.4327 34.3452 59.7175 31.9158 59.7175C29.9627 59.7175 28.5813 59.0989 27.2475 58.29C26.914 58.0996 26.8664 57.8617 27.0093 57.6238L27.1046 57.481C27.2475 57.2907 27.4857 57.1955 27.7715 57.3859C29.1053 58.2424 30.2962 58.7182 31.9634 58.7182C33.6306 58.7182 35.6313 58.0045 35.6313 56.0535C35.5837 52.1993 27.3428 53.5316 27.3428 49.1063ZM38.9658 46.4892L42.6338 55.9584C42.6814 56.006 42.6814 56.1011 42.6338 56.1487L42.3479 56.8149C42.2527 57.0052 41.9669 57.0052 41.8716 56.8149L37.9655 46.9175C37.8702 46.7271 38.0131 46.4892 38.2037 46.3941L38.4418 46.2989C38.68 46.2037 38.9182 46.2989 38.9658 46.4892ZM48.3024 46.3465L48.0642 46.2513C47.8737 46.1561 47.6355 46.2513 47.5402 46.4892L40.9189 63.2862C40.8236 63.5242 40.9189 63.8097 41.1094 63.8573L41.3476 63.9524C41.5381 64.0476 41.7763 63.9048 41.8716 63.6669L48.4929 46.8699C48.5882 46.6796 48.4929 46.4416 48.3024 46.3465Z" fill="#FF9E1B"/>
</g>
<defs>
<clipPath id="clip0_45_55">
<rect width="138" height="64" fill="white"/>
</clipPath>
</defs>
</svg>
