<svg width="147" height="64" viewBox="0 0 147 64" fill="none" xmlns="http://www.w3.org/2000/svg">
<g clip-path="url(#clip0_45_69)">
<path d="M43.0293 20.7733H56.1208V20.4169C55.9686 18.9912 55.3089 17.8202 54.0911 16.8019C52.8733 15.7836 51.4525 15.2745 49.8795 15.2745C46.0231 15.3254 43.7397 17.1583 43.0293 20.7733ZM61.601 25.0501C60.9921 25.5593 60.2817 25.8138 59.5205 25.8138H42.9786C43.3845 27.7995 44.2979 29.327 45.7187 30.4471C47.1395 31.5672 48.7632 32.1273 50.5899 32.1273C51.96 32.1273 53.0255 32.0255 53.7867 31.7709C54.5478 31.5163 55.1567 31.2617 55.6134 30.9562C56.0701 30.6508 56.3745 30.498 56.5267 30.3962C57.1357 30.0907 57.6938 29.9379 58.252 29.9379C58.9624 29.9379 59.5713 30.1925 60.0787 30.7017C60.5861 31.2108 60.8398 31.7709 60.8398 32.4328C60.8398 33.3492 60.3831 34.1639 59.419 34.8767C58.5057 35.6404 57.2371 36.3023 55.6641 36.8115C54.0911 37.3715 52.5181 37.6261 50.8944 37.6261C48.1036 37.6261 45.6679 37.066 43.5875 35.895C41.5071 34.7239 39.8833 33.0947 38.767 31.0581C37.6507 29.0215 37.0418 26.6794 37.0418 24.0827C37.0418 21.1806 37.6507 18.6858 38.8685 16.4964C40.0863 14.3071 41.6593 12.6778 43.6382 11.5068C45.6172 10.3357 47.6976 9.77566 49.9303 9.77566C52.1629 9.77566 54.1926 10.3866 56.1716 11.5577C58.1505 12.7796 59.6728 14.4089 60.8398 16.4455C62.0069 18.4821 62.5651 20.6714 62.5651 23.0644C62.5143 23.93 62.2099 24.541 61.601 25.0501ZM73.9313 36.2514C73.3731 36.8624 72.612 37.1169 71.7494 37.1169C70.8868 37.1169 70.2271 36.8115 69.669 36.2514C69.1108 35.6913 68.8064 34.9276 68.8064 34.0621V3.05489C68.8064 2.18934 69.1108 1.47653 69.669 0.865553C70.2271 0.254574 70.9883 0 71.8509 0C72.7135 0 73.3731 0.305489 73.9313 0.865553C74.4895 1.47653 74.7939 2.18934 74.7939 3.05489V34.0621C74.7939 34.9785 74.4895 35.6913 73.9313 36.2514ZM87.6824 36.2514C87.1243 36.8115 86.4139 37.1169 85.5513 37.1169C84.6886 37.1169 83.9782 36.8115 83.4201 36.2514C82.8619 35.6404 82.5575 34.9276 82.5575 34.0621V13.3397C82.5575 12.4741 82.8619 11.7613 83.4201 11.1504C83.9782 10.5394 84.6886 10.2848 85.5513 10.2848C86.4139 10.2848 87.1243 10.5903 87.6824 11.1504C88.2406 11.7104 88.545 12.4741 88.545 13.3397V34.0621C88.545 34.9785 88.2913 35.6913 87.6824 36.2514ZM114.728 19.3477C114.018 18.0748 113.155 17.0565 111.988 16.3437C110.821 15.6309 109.552 15.2745 108.182 15.2745C106.812 15.2745 105.493 15.6309 104.377 16.3437C103.21 17.0565 102.296 18.0239 101.637 19.3477C100.926 20.6205 100.622 22.0971 100.622 23.7263C100.622 25.3556 100.977 26.8321 101.637 28.105C102.296 29.3779 103.26 30.3453 104.377 31.0581C105.493 31.7709 106.812 32.1273 108.182 32.1273C109.552 32.1273 110.872 31.7709 111.988 31.0581C113.155 30.3453 114.068 29.3779 114.728 28.105C115.388 26.8321 115.743 25.3556 115.743 23.7263C115.743 22.0971 115.388 20.6205 114.728 19.3477ZM119.954 30.9562C118.737 33.0947 117.113 34.7239 115.032 35.895C112.952 37.066 110.669 37.6261 108.132 37.6261C105.594 37.6261 103.311 37.0151 101.231 35.895C99.1501 34.7239 97.5264 33.0947 96.3086 30.9562C95.0908 28.8178 94.4819 26.4248 94.4819 23.7263C94.4819 21.0278 95.0908 18.6348 96.3086 16.4964C97.5264 14.358 99.1501 12.7287 101.231 11.5068C103.311 10.3357 105.594 9.72474 108.132 9.72474C110.669 9.72474 112.952 10.3357 115.032 11.5068C117.113 12.6778 118.787 14.358 119.954 16.4964C121.172 18.6348 121.73 21.0278 121.73 23.7263C121.73 26.4248 121.172 28.8178 119.954 30.9562ZM125.891 31.4654C125.891 30.5998 126.348 29.8361 127.211 29.2761C127.667 28.9706 128.175 28.8178 128.682 28.8178C129.392 28.8178 130.052 29.1233 130.661 29.7852C131.676 30.8035 132.691 31.6181 133.807 32.0764C134.873 32.5855 136.192 32.8401 137.714 32.8401C140.302 32.7383 141.621 31.7709 141.621 29.887C141.621 28.9197 141.165 28.2068 140.302 27.6977C139.439 27.1885 138.019 26.6794 136.192 26.1702C134.264 25.6102 132.691 25.101 131.473 24.541C130.255 23.9809 129.189 23.1663 128.327 22.0971C127.464 21.0278 127.008 19.5513 127.008 17.7184C127.008 16.0891 127.464 14.7144 128.378 13.5434C129.291 12.3723 130.509 11.4558 131.98 10.794C133.452 10.1321 135.025 9.82657 136.699 9.82657C138.374 9.82657 140.099 10.1321 141.824 10.794C143.55 11.4049 144.869 12.3723 145.833 13.5943C146.29 14.1543 146.493 14.7144 146.493 15.4272C146.493 16.1909 146.188 16.8528 145.528 17.362C145.072 17.7184 144.514 17.922 143.955 17.922C143.194 17.922 142.636 17.6675 142.179 17.2092C141.571 16.4964 140.809 15.8854 139.845 15.4781C138.881 15.0708 137.816 14.8162 136.598 14.8162C134.061 14.8162 132.792 15.7327 132.792 17.5656C132.792 18.2784 133.046 18.8894 133.503 19.3477C133.959 19.8059 134.568 20.1623 135.279 20.4169C135.989 20.6714 137.004 20.9769 138.323 21.3333C140.099 21.8425 141.621 22.3516 142.839 22.9117C144.057 23.4718 145.072 24.2864 145.884 25.3556C146.696 26.4757 147.152 27.9014 147.152 29.7343C147.152 31.3636 146.645 32.7892 145.681 34.0111C144.717 35.2331 143.448 36.1496 141.926 36.8115C140.404 37.4224 138.831 37.7788 137.257 37.7788C135.076 37.7788 132.995 37.4224 131.118 36.6587C129.24 35.9459 127.667 34.7239 126.449 33.0947C126.043 32.5855 125.891 32.0764 125.891 31.4654ZM88.6973 3.15672C88.6973 4.88783 87.2765 6.31344 85.5513 6.31344C83.826 6.31344 82.4052 4.88783 82.4052 3.15672C82.4052 1.42562 83.826 0 85.5513 0C87.2765 0 88.6973 1.42562 88.6973 3.15672ZM27.0456 37.1679C25.3711 37.1679 23.9503 35.7932 23.9503 34.0621V4.17502C23.9503 2.49483 25.3203 1.06921 27.0456 1.06921C28.7708 1.06921 30.1408 2.44391 30.1408 4.17502V34.0621C30.0901 35.7422 28.7201 37.1679 27.0456 37.1679ZM0 21.1297V34.0621C0 35.7422 1.37004 37.1679 3.09527 37.1679C4.8205 37.1679 6.19054 35.7932 6.19054 34.0621V24.9483L20.4491 21.1297C20.9565 20.9769 21.3117 20.5187 21.3117 20.0095V16.0891C21.3117 15.3254 20.5506 14.7144 19.8402 14.969L0.913359 20.0605C0.355195 20.1114 0 20.5696 0 21.1297ZM3.09527 1.12013C1.37004 1.12013 0 2.49483 0 4.17502V15.8854C0 16.5473 0.507421 17.0565 1.16707 17.0565C1.26855 17.0565 1.37004 17.0565 1.47152 17.0056L5.27718 15.9873C5.7846 15.8345 6.1398 15.3763 6.1398 14.8671V4.17502C6.1398 2.49483 4.76976 1.12013 3.09527 1.12013ZM57.6938 62.829H57.6431C57.3894 62.8799 57.1357 62.8799 56.9327 62.8799H56.8312C56.5775 62.8799 56.3745 62.8799 56.1208 62.829H56.0701C53.8882 62.4726 51.3003 60.6396 51.3003 56.4646C51.3003 52.2896 53.8882 50.4566 56.0701 50.1002H56.1208C56.3745 50.0493 56.6282 50.0493 56.8312 50.0493H56.9327C57.1864 50.0493 57.3894 50.0493 57.6431 50.1002H57.6938C59.8757 50.4566 62.4636 52.2896 62.4636 56.4646C62.4636 60.6396 59.8757 62.4726 57.6938 62.829ZM61.8547 51.2204C60.8906 50.0493 59.5713 49.3874 58.252 49.1329C58.2012 49.1329 58.1505 49.1329 58.1505 49.1329C58.0998 49.1329 58.049 49.1329 58.049 49.1329C57.9983 49.1329 57.9475 49.1329 57.8968 49.1329C57.5923 49.0819 57.2879 49.0819 56.9327 49.0819H56.6282C56.4253 49.0819 56.2223 49.1329 56.0193 49.1329C55.9686 49.1329 55.9686 49.1329 55.9178 49.1329C55.8671 49.1329 55.8164 49.1329 55.7656 49.1838C55.7149 49.1838 55.7149 49.1838 55.6641 49.1838C55.6134 49.1838 55.5626 49.1838 55.5626 49.2347C54.2434 49.4893 52.9241 50.1512 51.9092 51.3222C50.8944 52.5442 50.184 54.2753 50.184 56.6173C50.184 58.9594 50.8436 60.6905 51.9092 61.9125C52.8733 63.0835 54.1926 63.7454 55.5626 64C55.6134 64 55.6641 64 55.6641 64.0509C55.7149 64.0509 55.7149 64.0509 55.7656 64.0509C55.8164 64.0509 55.8671 64.0509 55.9178 64.0509C56.2223 64.1018 56.5267 64.1018 56.8819 64.1018H56.9327C57.2879 64.1018 57.5923 64.0509 57.8968 64.0509C57.9475 64.0509 57.9983 64.0509 58.049 64.0509C58.0998 64.0509 58.1505 64.0509 58.1505 64.0509C58.2012 64.0509 58.252 64.0509 58.252 64C59.5713 63.7454 60.8906 63.0835 61.8547 61.9125C62.8695 60.6905 63.5799 58.9594 63.5799 56.6173C63.5799 54.2753 62.8695 52.3914 61.8547 51.2204ZM0.405937 49.4383H0.71039C0.913359 49.4383 1.11633 49.642 1.11633 49.8457V63.0835C1.11633 63.2872 0.913359 63.4909 0.71039 63.4909H0.405937C0.202969 63.4909 0 63.2872 0 63.0835V49.8457C0 49.642 0.202969 49.4383 0.405937 49.4383ZM0.405937 44.3978H0.71039C0.913359 44.3978 1.11633 44.6014 1.11633 44.8051V45.6197C1.11633 45.8234 0.913359 46.0271 0.71039 46.0271H0.405937C0.202969 46.0271 0 45.8234 0 45.6197V44.8051C0 44.6014 0.202969 44.3978 0.405937 44.3978ZM47.2409 49.4383H47.5454C47.7484 49.4383 47.9513 49.642 47.9513 49.8457V63.0835C47.9513 63.2872 47.7484 63.4909 47.5454 63.4909H47.2409C47.038 63.4909 46.835 63.2872 46.835 63.0835V49.8457C46.835 49.642 47.038 49.4383 47.2409 49.4383ZM47.2409 44.3978H47.5454C47.7484 44.3978 47.9513 44.6014 47.9513 44.8051V45.6197C47.9513 45.8234 47.7484 46.0271 47.5454 46.0271H47.2409C47.038 46.0271 46.835 45.8234 46.835 45.6197V44.8051C46.835 44.6014 47.038 44.3978 47.2409 44.3978ZM44.3486 49.5402L44.0949 49.4383C43.892 49.3365 43.6382 49.4383 43.5368 49.6929L38.9192 61.6579L34.3017 49.6929C34.2002 49.4893 33.9465 49.3874 33.7435 49.4383L33.4898 49.5402C33.2868 49.642 33.1854 49.8966 33.2361 50.1002L38.3611 63.2872C38.4118 63.4399 38.6148 63.5418 38.767 63.5418H38.9192C39.1222 63.5418 39.2744 63.4399 39.3252 63.2872L44.4501 50.1002C44.7038 49.8966 44.5516 49.642 44.3486 49.5402ZM28.8723 62.8799V63.0835C28.8723 63.2872 28.6693 63.4909 28.4663 63.4909H26.1829C23.6966 63.4909 21.9206 62.5744 20.9058 60.9451C20.1446 59.7741 19.7894 58.2466 19.7894 56.4137V49.7948C19.7894 49.5911 19.9924 49.3874 20.1954 49.3874H20.4998C20.7028 49.3874 20.9058 49.5911 20.9058 49.7948V56.4137C20.9058 60.2832 22.8847 62.3707 26.1829 62.3707H28.4663C28.6693 62.4726 28.8723 62.6253 28.8723 62.8799ZM30.3945 49.4383H30.699C30.902 49.4383 31.1049 49.642 31.1049 49.8457V63.0835C31.1049 63.2872 30.902 63.4909 30.699 63.4909H30.3945C30.1916 63.4909 29.9886 63.2872 29.9886 63.0835V49.8457C29.9886 49.642 30.1916 49.4383 30.3945 49.4383ZM4.92199 49.4383H5.22644C5.42941 49.4383 5.63238 49.642 5.63238 49.8457V63.0835C5.63238 63.2872 5.42941 63.4909 5.22644 63.4909H4.92199C4.71902 63.4909 4.51605 63.2872 4.51605 63.0835V49.8457C4.51605 49.642 4.71902 49.4383 4.92199 49.4383ZM11.7722 50.0493C10.3007 50.0493 8.82913 50.7112 7.66206 51.4749C7.40835 51.6277 7.05316 51.6277 6.95167 51.3731L6.85019 51.1695C6.69796 50.9149 6.90093 50.6603 7.15464 50.5076C8.57542 49.642 10.0977 48.9292 11.8229 48.9292C14.36 48.9292 17.1001 50.3039 17.1001 54.7335V63.0326C17.1001 63.2363 16.8971 63.4399 16.6942 63.4399H16.3897C16.1867 63.4399 15.9838 63.2363 15.9838 63.0326V54.7335C15.933 50.7621 13.2944 50.0493 11.7722 50.0493Z" fill="#FF9E1B"/>
</g>
<defs>
<clipPath id="clip0_45_69">
<rect width="147" height="64" fill="white"/>
</clipPath>
</defs>
</svg>
