<svg xmlns="http://www.w3.org/2000/svg" fill="currentColor" width="136.255" height="105.262" viewBox="0 0 136.255 105.262">
  <path id="Aranys_white" d="M125.692,105.038a10.228,10.228,0,0,1-2.282-.71,6.107,6.107,0,0,1-.978-.475,7.41,7.41,0,0,1-.677-.455l-.441,1.183-.062.166h-1.469l-.053-.185-1.923-6.738-.066-.234.234-.076,1.1-.357.211-.069.1.2a13.277,13.277,0,0,0,.919,1.586,12.273,12.273,0,0,0,1.112,1.407,10.771,10.771,0,0,0,1.351,1.207,10.318,10.318,0,0,0,1.516.948,7.535,7.535,0,0,0,1.648.611,7.445,7.445,0,0,0,1.739.2,5.984,5.984,0,0,0,3.61-1.126h.005a3.361,3.361,0,0,0,1.555-2.948,3.269,3.269,0,0,0-.245-1.345,1.825,1.825,0,0,0-.7-.813,9.135,9.135,0,0,0-1.323-.57q-.935-.324-1.9-.563l-3.3-.8a25.059,25.059,0,0,1-2.624-.784,7.842,7.842,0,0,1-1.694-.825,4.385,4.385,0,0,1-.905-.714,5.6,5.6,0,0,1-.765-.99,4.758,4.758,0,0,1-.5-1.13,4.333,4.333,0,0,1-.166-1.181,5.016,5.016,0,0,1,.156-1.242,5.324,5.324,0,0,1,.465-1.186,5.043,5.043,0,0,1,.681-1.022,5.994,5.994,0,0,1,.954-.887,7.086,7.086,0,0,1,2.211-1.038,10.175,10.175,0,0,1,2.721-.343,12.091,12.091,0,0,1,3,.391h.006a9.314,9.314,0,0,1,1.431.536,6.911,6.911,0,0,1,.878.5l.243-.753.057-.177h1.442l.059.175,1.785,5.335.078.232-.232.085-.914.337-.194.072-.111-.172a13.432,13.432,0,0,0-1.474-1.9,10.612,10.612,0,0,0-1.672-1.449,6.929,6.929,0,0,0-1.906-.908,7.551,7.551,0,0,0-2.152-.3,5.638,5.638,0,0,0-1.494.194,4.9,4.9,0,0,0-1.31.579,2.721,2.721,0,0,0-.954.9,2.229,2.229,0,0,0-.31,1.173,2.349,2.349,0,0,0,.153.87,1.95,1.95,0,0,0,.452.678l.005.005a3.79,3.79,0,0,0,.677.554,4.211,4.211,0,0,0,.813.4c.255.087.561.181.934.288.4.114.816.225,1.24.333l3.029.705c.672.155,1.3.316,1.87.495s1.1.362,1.566.56a5.621,5.621,0,0,1,1.3.706,6.2,6.2,0,0,1,1.1,1.043l.005.006a4.231,4.231,0,0,1,.706,1.4,6.18,6.18,0,0,1,.232,1.748,6.423,6.423,0,0,1-.3,1.983,5.675,5.675,0,0,1-.9,1.707,7.175,7.175,0,0,1-1.369,1.369,8.012,8.012,0,0,1-1.735,1,10.259,10.259,0,0,1-1.944.605,10.073,10.073,0,0,1-2.027.2,12.35,12.35,0,0,1-2.289-.224Zm-45.922-.288H72.036v-1.39h.555a1.475,1.475,0,0,0,.163-.016c.058-.006.119-.015.182-.024l.044-.006.221-.035.072-.014h.007l.141-.023a2.141,2.141,0,0,0,.272-.1,2.977,2.977,0,0,0,.279-.136,1.263,1.263,0,0,0,.24-.2,1.491,1.491,0,0,0,.2-.279,3.852,3.852,0,0,0,.223-.987,14.06,14.06,0,0,0,.08-1.628V88.238a6.7,6.7,0,0,0-.038-.73,6.348,6.348,0,0,0-.115-.706,1.25,1.25,0,0,0-.178-.421A1.8,1.8,0,0,0,74.034,86a1.741,1.741,0,0,0-.526-.238,3.636,3.636,0,0,0-.776-.113h-.005l-.45-.029-.241-.016V84.231H79l.076.123L88.357,99.5V88.282a6.268,6.268,0,0,0-.105-1.188,2.6,2.6,0,0,0-.279-.8,1.263,1.263,0,0,0-.583-.431,3.746,3.746,0,0,0-1.133-.217l-.592-.024-.246-.011V84.231H93.21v1.381l-.239.017-.337.024a5.735,5.735,0,0,0-.669.077,4,4,0,0,0-.563.139,1.014,1.014,0,0,0-.35.211,1.327,1.327,0,0,0-.274.37,3.349,3.349,0,0,0-.2.938A16.576,16.576,0,0,0,90.5,89.1v15.646H87.546l-.075-.121L76.86,87.58v13.065c0,.3.012.575.034.824a5.315,5.315,0,0,0,.105.668,1.589,1.589,0,0,0,.2.45,1.722,1.722,0,0,0,.335.381,1.846,1.846,0,0,0,.549.232,4.751,4.751,0,0,0,.858.132l.593.029.244.013v1.377Zm-23.833,0H47.478v-1.337l.2-.042.332-.069a5.526,5.526,0,0,0,.9-.252,2.38,2.38,0,0,0,.591-.316l.006-.005a2.4,2.4,0,0,0,.476-.477,6.312,6.312,0,0,0,.518-.793,17.769,17.769,0,0,0,.813-1.7c.327-.764.688-1.666,1.1-2.756L57.366,84.39l.068-.159h3.117l.063.162,6.107,15.439c.123.3.227.545.323.772.047.105.091.211.125.3l.006.016c.04.1.085.211.134.336.105.226.211.436.316.62a3.465,3.465,0,0,0,.3.441l.012.014.005.009a1.865,1.865,0,0,0,.321.374,2.311,2.311,0,0,0,.435.3,3.719,3.719,0,0,0,.645.251,3.318,3.318,0,0,0,.672.105l.241.014v1.369H61.411v-1.341l.211-.038q.4-.073.729-.135c.2-.038.325-.063.381-.077a2.269,2.269,0,0,0,.421-.158,1.861,1.861,0,0,0,.322-.211.992.992,0,0,0,.188-.294.976.976,0,0,0,.064-.356,2.234,2.234,0,0,0-.105-.572,9.648,9.648,0,0,0-.33-.948l-1.263-3.311H54.76L54,99.336q-.283.74-.5,1.5a3.541,3.541,0,0,0-.161.856,1.277,1.277,0,0,0,.526,1.176,3.31,3.31,0,0,0,.746.291,7.881,7.881,0,0,0,1.1.2l.226.026v1.356Zm-.563-9.265h5.932l-3.01-7.765ZM34.28,104.749H25.014V103.38l.238-.018.391-.029c.271-.026.526-.064.772-.111a3.292,3.292,0,0,0,.539-.145l.025-.006a.8.8,0,0,0,.316-.174,1.65,1.65,0,0,0,.3-.375,3.727,3.727,0,0,0,.193-.942,16.7,16.7,0,0,0,.072-1.708V88.238c0-.334-.009-.621-.028-.857a3.939,3.939,0,0,0-.08-.6,1.143,1.143,0,0,0-.182-.394,1.464,1.464,0,0,0-.928-.621,3.828,3.828,0,0,0-.827-.114l-.564-.029-.243-.014V84.231h12.07c.441,0,.915.022,1.407.063a13.017,13.017,0,0,1,1.307.186,6.9,6.9,0,0,1,1.163.316,8.232,8.232,0,0,1,1.146.526h.005a4.566,4.566,0,0,1,.937.737,4.959,4.959,0,0,1,.745.979,4.633,4.633,0,0,1,.473,1.2,5.944,5.944,0,0,1,.156,1.4A5.15,5.15,0,0,1,44,91.706a4.8,4.8,0,0,1-1.236,1.669,6.789,6.789,0,0,1-1.855,1.118,7.555,7.555,0,0,1-1.753.466l4.5,6.3a9.393,9.393,0,0,0,.755.885,3.8,3.8,0,0,0,.655.545l.011.005a3.627,3.627,0,0,0,.756.387,6.26,6.26,0,0,0,1.017.289l.211.042v1.336H41.709l-.077-.105L35.1,95.29H31.339v5.33c0,.3.012.581.034.828a5.613,5.613,0,0,0,.105.67,1.369,1.369,0,0,0,.183.439,1.739,1.739,0,0,0,.347.392,1.707,1.707,0,0,0,.538.257,4.905,4.905,0,0,0,.865.165h.871v1.385Zm-2.333-18.4-.006.005a1.375,1.375,0,0,0-.339.238.664.664,0,0,0-.164.241,1.851,1.851,0,0,0-.071.375,4.881,4.881,0,0,0-.026.572v5.766h4.193a15.065,15.065,0,0,0,2.1-.155,3.5,3.5,0,0,0,.791-.22,4.451,4.451,0,0,0,.784-.421,3.279,3.279,0,0,0,.692-.6,2.9,2.9,0,0,0,.46-.743l.005-.015a3.9,3.9,0,0,0,.316-.875,4.035,4.035,0,0,0,.105-.923,4.254,4.254,0,0,0-.146-1.164,2.843,2.843,0,0,0-1.158-1.628,4.273,4.273,0,0,0-1.046-.519,7.281,7.281,0,0,0-1.379-.323,12.377,12.377,0,0,0-1.729-.105,7.733,7.733,0,0,0-3.386.5ZM8.459,104.75H0v-1.337l.2-.042.331-.069a5.429,5.429,0,0,0,.9-.252,2.349,2.349,0,0,0,.59-.316l.006-.005a2.3,2.3,0,0,0,.476-.477,5.915,5.915,0,0,0,.519-.793,17.573,17.573,0,0,0,.812-1.7c.31-.72.679-1.648,1.1-2.756L9.9,84.39l.06-.159h3.117l.064.162,6.107,15.439c.115.28.211.517.323.772.042.1.08.191.115.274l.017.043.015.034.022.054.009.023.088.223c.105.227.211.436.316.62a3.184,3.184,0,0,0,.3.441l.011.014.005.009a1.8,1.8,0,0,0,.322.374,2.071,2.071,0,0,0,.437.3,3.362,3.362,0,0,0,.642.248,3.316,3.316,0,0,0,.672.105l.241.014v1.369H13.936v-1.34l.211-.038.73-.135c.211-.041.325-.064.381-.077a2.275,2.275,0,0,0,.421-.158,1.719,1.719,0,0,0,.323-.211.947.947,0,0,0,.187-.294.961.961,0,0,0,.064-.356,2.2,2.2,0,0,0-.105-.572,9.728,9.728,0,0,0-.328-.948l-1.263-3.311H7.284L6.52,99.336c-.231.611-.395,1.1-.5,1.5a3.447,3.447,0,0,0-.161.857,1.276,1.276,0,0,0,.526,1.175,3.326,3.326,0,0,0,.746.291,8.135,8.135,0,0,0,1.1.2l.225.026v1.356ZM7.9,95.485h5.932L10.818,87.72Zm102.542,9.265h-9.731v-1.357h.874c.274-.027.526-.062.753-.105a3.949,3.949,0,0,0,.584-.152,1.059,1.059,0,0,0,.364-.217,1.611,1.611,0,0,0,.31-.393,3.5,3.5,0,0,0,.211-.948,14.71,14.71,0,0,0,.076-1.661v-3.7l-4.662-7.457-.8-1.255c-.179-.28-.3-.472-.383-.588a3.21,3.21,0,0,0-.375-.378,3.5,3.5,0,0,0-.471-.338l-.014-.009a3.04,3.04,0,0,0-.656-.345,4.66,4.66,0,0,0-.842-.23l-.211-.038V84.231h8.933V85.6l-.222.032c-.4.056-.744.115-1.028.175a4.528,4.528,0,0,0-.665.183.533.533,0,0,0-.279.211.758.758,0,0,0-.1.41,1.6,1.6,0,0,0,.091.4,1.665,1.665,0,0,0,.077.176c.034.068.078.148.127.232l.042.071.117.2.105.174,3.848,6.03,3.718-5.777a4.393,4.393,0,0,0,.442-.8,1.641,1.641,0,0,0,.137-.61.653.653,0,0,0-.158-.439,2,2,0,0,0-.221-.195.817.817,0,0,0-.175-.105l-.014-.006a1.358,1.358,0,0,0-.25-.087,4.2,4.2,0,0,0-.414-.088c-.091-.016-.191-.036-.305-.061s-.211-.048-.363-.084l-.2-.048V84.231h7.9V85.59l-.22.033a6.508,6.508,0,0,0-1.053.232,3.386,3.386,0,0,0-.77.346l-.008.006a4.739,4.739,0,0,0-.64.44,4.316,4.316,0,0,0-.538.526c-.105.121-.272.346-.5.669s-.526.752-.871,1.263l-4.647,7.215v3.558c0,.451.009.851.027,1.191a7.925,7.925,0,0,0,.082.836,2.084,2.084,0,0,0,.2.595,2.046,2.046,0,0,0,.374.494,1.474,1.474,0,0,0,.581.294,3.531,3.531,0,0,0,.936.105h.875v1.359Zm-5.977-28.244H79.177v-3.1l.211-.038c.869-.156,1.6-.291,2.2-.4s1-.195,1.183-.239a7.13,7.13,0,0,0,1.369-.513,5.452,5.452,0,0,0,1.093-.718,3.264,3.264,0,0,0,.917-2.316,7.352,7.352,0,0,0-.327-1.852,29.9,29.9,0,0,0-1.006-2.884q-1.2-3.14-2.413-6.277a32.378,32.378,0,0,1-27.3,4.622q-.455,1.328-.743,2.362a11.183,11.183,0,0,0-.5,2.706,5.685,5.685,0,0,0,.466,2.422,3.558,3.558,0,0,0,1.369,1.542,10.169,10.169,0,0,0,2.38.932,23.73,23.73,0,0,0,3.383.621l.226.027v3.113H37.289v-3.1l.2-.042.995-.211a17.214,17.214,0,0,0,2.79-.782,7.544,7.544,0,0,0,1.9-1.022l.006-.005a7.907,7.907,0,0,0,1.53-1.53,18.809,18.809,0,0,0,1.6-2.45,52.819,52.819,0,0,0,2.464-5.14q.349-.811.694-1.625A31.77,31.77,0,0,1,32.008,35.816a31.4,31.4,0,0,1,1.211-12.979q.539.357,1.106.669a28.272,28.272,0,0,0-.681,10.246A28.859,28.859,0,1,0,59.033,2.076a29.3,29.3,0,0,0-3.77.679q-.288-.516-.615-1.01A32.471,32.471,0,0,1,60.225.617,32.008,32.008,0,0,1,95.744,28.582a31.462,31.462,0,0,1-6.127,22.582l4.511,11.25q.247.6.543,1.306.253.6.435,1.027.191.443.392.942c.128.316.265.66.409,1.026q.5,1.083.979,1.909a10.941,10.941,0,0,0,.948,1.391l.011.014.006.009A5.987,5.987,0,0,0,98.9,71.263a7.022,7.022,0,0,0,1.417.967,10.708,10.708,0,0,0,2.034.788,10.337,10.337,0,0,0,2.124.345l.241.014V76.5ZM52.634,53.025c4.982-12.3,9.618-24.928,14.424-37.16,2.888,0,4.264-3.212,7.152-3.212L85.059,39.746a27,27,0,0,1-6.593,8.242c-2.745-7.044-5.58-14.283-9.184-23.575-4.417,11.734-7.608,20.623-11,29.789a27.06,27.06,0,0,1-5.649-1.177ZM33.013,19.859l4.174-4.136,12.241,4.551Zm18.589.067L38.034,14.884l8.528-8.45.27.706,4.854,12.819ZM31.54,10.115,35.8,5.9l.064.835.619,8.159-4.295,4.256ZM47.41,5.588l4.17-4.129L52,17.7ZM37.3,11.194l-.452-5.938,3.968.294,4.732.355-8.045,7.973Zm.19-6.98L41.747,0l9.107.64L46.566,4.895Z"/>
</svg>
