<svg xmlns="http://www.w3.org/2000/svg" xml:space="preserve" id="LONG_COLOR_WHITE" x="0" y="0" viewBox="0 0 401.4 78.4">
  <g id="LOGO">
    <g id="TEXT" fill="#ffffff">
      <path id="c" d="M141.4 41.4v-7q-1.95-.3-3.9-.3c-3.5 0-6 1-7.4 3.1S128 42.5 128 47c0 4.4.7 7.8 2.2 9.9s4 3.2 7.7 3.2c3.8 0 7.6-.5 11.2-1.5l1.3 8.2c-4.2 1.2-8.5 1.7-12.8 1.7-12.7 0-19-7.1-19-21.4 0-7.4 1.4-12.7 4.3-16.1s7.7-5.1 14.4-5.1c4.2 0 8.4.5 12.5 1.6v14z" class="st0"/>
      <path id="o" d="M163 31.1c2.9-3.5 7.4-5.2 13.4-5.2s10.5 1.7 13.4 5.2c2.9 3.4 4.4 8.8 4.4 16s-1.5 12.5-4.4 16-7.4 5.3-13.4 5.3c-6.1 0-10.5-1.8-13.4-5.3s-4.4-8.9-4.4-16.1 1.5-12.5 4.4-15.9m6.9 6.1c-1.2 2-1.8 5.3-1.8 9.8q0 6.9 1.8 9.9c1.2 2.1 3.4 3.1 6.5 3.1s5.3-1 6.5-3.1q1.8-3.15 1.8-9.9c0-4.6-.6-7.8-1.8-9.8s-3.4-3-6.5-3c-3.2 0-5.3 1-6.5 3" class="st0"/>
      <path id="a" d="M215.7 68.2c-9.1 0-13.7-4.3-13.7-13 0-4.6 1.5-7.9 4.4-9.7s7-2.8 12.2-2.8c2.5 0 5.2.1 8.4.4 0-3.4-.5-5.8-1.5-7-1-1.3-2.6-1.9-5-1.9q-4.2 0-8.4.9c-2.5.4-5 1-7.4 1.7l-1.6-8.1c5.7-1.8 11.6-2.7 17.5-2.7 5.7 0 9.7 1.2 11.9 3.8 2.2 2.5 3.3 6.8 3.3 12.7v17.4l.9 7.5-8.8.8-.9-3.9c-4.7 2.5-8.5 3.9-11.3 3.9m1.4-8.3c1.8-.1 3.6-.4 5.3-1.1 1.7-.6 3.2-1.4 4.6-2.5v-6c-3.4-.3-6.2-.4-8.4-.4-4.7 0-7.1 1.8-7.1 5.3 0 3.1 1.9 4.7 5.6 4.7" class="st0"/>
      <path id="l" d="M244.6 68.4v-7.9h12.8V17.9l-11.1.1-.1-7.8 20-.1v50.5h12.1v7.9z" class="st0"/>
      <path id="i" d="M285.9 68.4v-8h12.9V34.1h-12.2v-8h21.1v34.4h12.2v8zm16.9-46.8c-1.5.1-3.1-.5-4.1-1.6s-1.6-2.7-1.5-4.2c-.1-1.5.5-3 1.6-4.2 1.1-1.1 2.6-1.6 4.2-1.6 1.5-.1 3 .5 4.1 1.5 1 1.2 1.5 2.7 1.4 4.2.1 1.5-.4 3.1-1.5 4.2-1.2 1.2-2.7 1.8-4.2 1.7" class="st0"/>
      <path id="o-2" d="M330.1 31.1c2.9-3.5 7.4-5.2 13.4-5.2s10.5 1.7 13.4 5.2c2.9 3.4 4.4 8.8 4.4 16s-1.5 12.5-4.4 16-7.4 5.3-13.4 5.3-10.5-1.8-13.4-5.3-4.4-8.9-4.4-16.1 1.5-12.5 4.4-15.9m6.9 6.1c-1.2 2-1.8 5.3-1.8 9.8q0 6.9 1.8 9.9c1.2 2.1 3.4 3.1 6.5 3.1s5.3-1 6.5-3.1q1.8-3.15 1.8-9.9c0-4.6-.6-7.8-1.8-9.8s-3.4-3-6.5-3c-3.2 0-5.4 1-6.5 3" class="st0"/>
      <path id="s" d="m369.5 65.3 1.9-7.8c5.4 1.7 9.7 2.6 12.9 2.6s5.4-.3 6.5-.9 1.8-1.8 1.7-3.1c.1-1.3-.5-2.5-1.5-3.2-1.8-.9-3.8-1.6-5.8-2-5.6-1.4-9.6-2.9-11.8-4.6s-3.3-4.4-3.3-8.3c0-8.2 5.2-12.2 15.8-12.2 5.3.1 10.5.9 15.7 2.2l-1.6 8.1c-5.6-1.6-10-2.4-13.1-2.4s-5.1.3-6.2.8c-1 .5-1.7 1.6-1.6 2.8-.1 1.2.5 2.3 1.6 2.9 2.6 1.1 5.4 2 8.2 2.7 4.4 1.2 7.6 2.6 9.7 4.2s3.1 4.2 3.1 8q0 12.9-15.9 12.9c-5.7 0-11.1-.9-16.3-2.7" class="st0"/>
    </g>
    <path id="SYMBOL" d="M0 0v78.4h78.4V0zm52.4 68.4H10V26.1h10v32.3h32.3v10zm0-16.1h-10V36.2H30.1v-10h22.3zm16 0h-10V20.1H30.1v-10h38.4v42.2z" style="fill:#ff9e1b"/>
  </g>
</svg>
